HIERARCHY
ROOT Hips
{
	OFFSET 0.000000 8.830580 0.000000
	CHANNELS 6 Xposition Yposition Zposition Zrotation Yrotation Xrotation 
	JOINT Spine
	{
		OFFSET 0.000000 0.010000 0.000000
		CHANNELS 3 Zrotation Yrotation Xrotation
		JOINT Spine1
		{
			OFFSET 0.000000 2.459130 0.000000
			CHANNELS 3 Zrotation Yrotation Xrotation
			JOINT Neck
			{
				OFFSET 0.000000 2.484630 0.000000
				CHANNELS 3 Zrotation Yrotation Xrotation
				JOINT Head_virtual
				{
					OFFSET 0.000000 0.000000 0.000000
					CHANNELS 3 Zrotation Yrotation Xrotation
					JOINT Head
					{
						OFFSET 0.000000 0.927525 0.000000
						CHANNELS 3 Zrotation Yrotation Xrotation
						End Site
						{
							OFFSET 0.000000 0.000000 0.000000
						}
					}
				}
				JOINT LeftUpArm_virtual
				{
					OFFSET 0.000000 0.000000 0.000000
					CHANNELS 3 Zrotation Yrotation Xrotation
					JOINT LeftUpArm
					{
						OFFSET 1.248820 0.000000 0.000000
						CHANNELS 3 Zrotation Yrotation Xrotation
						JOINT LeftForeArm
						{
							OFFSET 2.597580 0.000000 0.000000
							CHANNELS 3 Zrotation Yrotation Xrotation
							JOINT LeftHand
							{
								OFFSET 2.455420 0.000000 0.000000
								CHANNELS 3 Zrotation Yrotation Xrotation
								End Site
								{
									OFFSET 0.000000 0.000000 0.000000
								}
							}
						}
					}
				}
				JOINT RightUpArm_virtual
				{
					OFFSET -0.000000 -0.000000 -0.000000
					CHANNELS 3 Zrotation Yrotation Xrotation
					JOINT RightUpArm
					{
						OFFSET -1.248820 -0.000000 -0.000000
						CHANNELS 3 Zrotation Yrotation Xrotation
						JOINT RightForeArm
						{
							OFFSET -2.597580 -0.000000 -0.000000
							CHANNELS 3 Zrotation Yrotation Xrotation
							JOINT RightHand
							{
								OFFSET -2.455420 -0.000000 -0.000000
								CHANNELS 3 Zrotation Yrotation Xrotation
								End Site
								{
									OFFSET 0.000000 0.000000 0.000000
								}
							}
						}
					}
				}
			}
		}
	}
	JOINT LeftUpLeg
	{
		OFFSET 1.271939 0.000000 0.000000
		CHANNELS 3 Zrotation Yrotation Xrotation
		JOINT LeftLowLeg
		{
			OFFSET 0.000000 -4.342910 0.000000
			CHANNELS 3 Zrotation Yrotation Xrotation
			JOINT LeftFoot
			{
				OFFSET 0.000000 -4.487670 0.000000
				CHANNELS 3 Zrotation Yrotation Xrotation
				JOINT LeftToeBase
				{
					OFFSET 0.000000 0.000000 1.515070
					CHANNELS 3 Zrotation Yrotation Xrotation
					End Site
					{
						OFFSET 0.000000 0.000000 0.000000
					}
				}
			}
		}
	}
	JOINT RightUpLeg
	{
		OFFSET -1.271939 0.000000 0.000000
		CHANNELS 3 Zrotation Yrotation Xrotation
		JOINT RightLowLeg
		{
			OFFSET 0.000000 -4.342910 0.000000
			CHANNELS 3 Zrotation Yrotation Xrotation
			JOINT RightFoot
			{
				OFFSET 0.000000 -4.487670 0.000000
				CHANNELS 3 Zrotation Yrotation Xrotation
				JOINT RightToeBase
				{
					OFFSET 0.000000 0.000000 1.515070
					CHANNELS 3 Zrotation Yrotation Xrotation
					End Site
					{
						OFFSET 0.000000 0.000000 0.000000
					}
				}
			}
		}
	}
}
MOTION
Frames: 14
Frame Time: 0.041667
-17.045795 9.200516 41.236752 -175.107002 0.447657 -173.710404 2.784665 -1.954074 -8.754460 -0.836179 -2.163459 3.539366 0.000000 0.000000 0.000000 -1.813754 1.797088 -1.124673 6.414727 5.415470 -44.887172 0.288234 16.540800 -4.775310 -9.390070 -5.790610 -28.916700 0.000000 -20.508400 0.000000 31.343901 8.785070 29.342699 8.038400 -13.075000 -1.644510 4.596470 3.039960 -30.645599 0.000000 18.887300 0.000000 -17.096300 -0.478703 28.946699 5.379615 -0.291663 -4.675861 0.000000 0.000000 7.376290 9.737622 0.075905 4.940704 0.000000 0.000000 -32.521700 3.725328 5.236255 -2.927608 0.000000 0.000000 6.306550 9.115786 -9.023265 8.732567 0.000000 0.000000 -26.504200 
-17.046568 9.200572 41.237173 -175.106932 0.457739 -173.713019 2.786914 -1.957792 -8.752359 -0.834285 -2.167511 3.556928 0.000000 0.000000 0.000000 -1.833032 1.808720 -1.111370 6.425063 5.408057 -44.918051 0.285590 16.545601 -4.770820 -9.392320 -5.792720 -28.924700 0.000000 -20.491400 0.000000 31.330299 8.792230 29.378099 8.044570 -13.066400 -1.643960 4.578580 3.053170 -30.618099 0.000000 18.866400 0.000000 -17.106100 -0.477097 28.928301 5.373241 -0.294288 -4.676042 0.000000 0.000000 7.383510 9.762793 0.095058 4.938307 0.000000 0.000000 -32.519800 3.720054 5.221613 -2.927931 0.000000 0.000000 6.306470 9.110295 -9.008905 8.735488 0.000000 0.000000 -26.498300 
-17.048675 9.200561 41.238212 -175.106760 0.479827 -173.716478 2.763708 -1.992089 -8.752291 -0.763906 -2.194739 3.606449 0.000000 0.000000 0.000000 -1.862544 1.797866 -1.135724 6.362107 5.372661 -44.915832 0.255522 16.593300 -4.788350 -9.422890 -5.780400 -28.981100 0.000000 -20.484501 0.000000 31.363899 8.794030 29.382000 8.017490 -13.010400 -1.633060 4.565280 3.065920 -30.664900 0.000000 18.875500 0.000000 -17.120501 -0.519082 28.960199 5.358992 -0.307082 -4.673287 0.000000 0.000000 7.379980 9.763112 0.124523 4.952912 0.000000 0.000000 -32.518900 3.703702 5.241941 -2.929091 0.000000 0.000000 6.296070 9.132822 -9.000389 8.747140 0.000000 0.000000 -26.502600 
-17.050147 9.200711 41.238679 -175.101596 0.521263 -173.707737 2.798429 -1.959100 -8.751616 -0.823551 -2.171063 3.603690 0.000000 0.000000 0.000000 -1.800215 1.746918 -1.110140 6.358479 5.391561 -44.917608 0.275400 16.539200 -4.769360 -9.382260 -5.744790 -28.940399 0.000000 -20.499901 0.000000 31.411301 8.824350 29.372999 8.037660 -13.041200 -1.628010 4.609110 3.067630 -30.761000 0.000000 18.926100 0.000000 -17.153099 -0.564503 28.876400 5.352071 -0.303803 -4.661466 0.000000 0.000000 7.355200 9.761225 0.154157 4.962318 0.000000 0.000000 -32.497499 3.696494 5.242526 -2.938684 0.000000 0.000000 6.283130 9.104830 -8.980806 8.778857 0.000000 0.000000 -26.500900 
-17.051344 9.200832 41.239535 -175.103456 0.538723 -173.688160 2.757946 -1.991365 -8.767426 -0.730853 -2.192020 3.624926 0.000000 0.000000 0.000000 -1.869383 1.787874 -1.117604 6.373852 5.350592 -44.922745 0.195492 16.593000 -4.781190 -9.321030 -5.756930 -28.844999 0.000000 -20.488501 0.000000 31.418699 8.839390 29.378901 8.005030 -13.000900 -1.611650 4.606150 3.088310 -30.802999 0.000000 18.953699 0.000000 -17.101601 -0.556354 29.004900 5.340898 -0.289277 -4.683320 0.000000 0.000000 7.356430 9.765980 0.156747 4.973219 0.000000 0.000000 -32.499701 3.683896 5.280050 -2.965344 0.000000 0.000000 6.282240 9.131957 -8.993673 8.787061 0.000000 0.000000 -26.467300 
-17.052885 9.200759 41.240816 -175.101394 0.556323 -173.679432 2.787635 -1.958238 -8.746428 -0.790885 -2.167483 3.589772 0.000000 0.000000 0.000000 -1.818086 1.760296 -1.077147 6.443739 5.360797 -44.894950 0.241156 16.528000 -4.769370 -9.308490 -5.744790 -28.841101 0.000000 -20.514900 0.000000 31.388201 8.821880 29.372900 8.054300 -13.047400 -1.625990 4.601100 3.086920 -30.761000 0.000000 18.943100 0.000000 -17.163000 -0.525628 29.345699 5.331812 -0.286287 -4.706909 0.000000 0.000000 7.378850 9.792959 0.181269 4.965525 0.000000 0.000000 -32.510700 3.672073 5.265357 -2.984806 0.000000 0.000000 6.282670 9.147439 -8.956741 8.792417 0.000000 0.000000 -26.471300 
-17.053437 9.200681 41.241303 -175.102429 0.564385 -173.680141 2.779718 -1.957052 -8.742580 -0.780150 -2.164279 3.594047 0.000000 0.000000 0.000000 -1.809759 1.749883 -1.067534 6.448312 5.355324 -44.879813 0.239347 16.513800 -4.775060 -9.314280 -5.734440 -28.909000 0.000000 -20.541700 0.000000 31.368401 8.829100 29.387100 8.047850 -13.060400 -1.627290 4.622770 3.103920 -30.790701 0.000000 18.938499 0.000000 -17.139500 -0.540163 29.312599 5.328334 -0.295717 -4.713893 0.000000 0.000000 7.393970 9.785351 0.187833 4.957026 0.000000 0.000000 -32.485500 3.665218 5.241384 -2.983817 0.000000 0.000000 6.272510 9.144385 -8.927360 8.807153 0.000000 0.000000 -26.459700 
-17.055184 9.200824 41.243250 -175.096853 0.584059 -173.678670 2.774364 -1.961308 -8.720929 -0.758161 -2.167160 3.595665 0.000000 0.000000 0.000000 -1.775395 1.708732 -1.099311 6.442279 5.331073 -44.767714 0.234972 16.512600 -4.749070 -9.312830 -5.741140 -29.031200 0.000000 -20.581600 0.000000 31.381500 8.834540 29.462700 8.052840 -13.050900 -1.591590 4.650600 3.106450 -30.854700 0.000000 18.954100 0.000000 -17.168900 -0.624882 29.355000 5.322204 -0.336583 -4.740872 0.000000 0.000000 7.429160 9.794569 0.248658 4.962247 0.000000 0.000000 -32.488501 3.642173 5.309434 -3.020823 0.000000 0.000000 6.313320 9.237702 -8.906453 8.816507 0.000000 0.000000 -26.468500 
-17.057057 9.201360 41.244857 -175.091467 0.623629 -173.673951 2.730423 -1.992490 -8.723415 -0.643213 -2.185834 3.652912 0.000000 0.000000 0.000000 -1.839915 1.741986 -1.136857 6.404597 5.295127 -44.748363 0.160015 16.559700 -4.793740 -9.278980 -5.719660 -28.880301 0.000000 -20.594700 0.000000 31.438000 8.872060 29.455700 8.013510 -12.992600 -1.601170 4.667690 3.117900 -30.900200 0.000000 18.971600 0.000000 -17.218399 -0.636305 29.427401 5.310342 -0.338806 -4.763403 0.000000 0.000000 7.459560 9.826831 0.298466 4.976768 0.000000 0.000000 -32.513300 3.611186 5.429534 -3.087606 0.000000 0.000000 6.403340 9.352114 -8.895679 8.818007 0.000000 0.000000 -26.483900 
-17.059827 9.202021 41.247533 -175.087427 0.714697 -173.684651 2.756403 -1.945094 -8.635544 -0.672573 -2.146473 3.602881 0.000000 0.000000 0.000000 -1.822402 1.737588 -1.126287 6.407496 5.316476 -44.778568 0.187302 16.533300 -4.822280 -9.286730 -5.662190 -28.732800 0.000000 -20.669600 0.000000 31.397100 8.877550 29.523600 8.031310 -13.025500 -1.607570 4.689730 3.123870 -30.878201 0.000000 18.996599 0.000000 -17.232500 -0.685451 29.419201 5.281293 -0.343267 -4.783096 0.000000 0.000000 7.529000 9.909908 0.429670 4.994240 0.000000 0.000000 -32.553101 3.561259 5.660220 -3.183257 0.000000 0.000000 6.553750 9.461664 -8.918322 8.807177 0.000000 0.000000 -26.495500 
-17.065648 9.202827 41.253495 -175.071577 0.916642 -173.680057 2.759076 -1.912312 -8.523002 -0.590900 -2.114901 3.578831 0.000000 0.000000 0.000000 -1.900194 1.799222 -1.207047 6.389883 5.293041 -44.764106 0.142320 16.607300 -4.879290 -9.322150 -5.596630 -28.727699 0.000000 -20.740900 0.000000 31.346001 8.854150 29.524401 7.996270 -12.943000 -1.596160 4.675560 3.102110 -30.737600 0.000000 19.078699 0.000000 -17.261999 -0.849740 29.377600 5.226389 -0.315787 -4.874144 0.000000 0.000000 7.725210 9.994859 0.656863 4.975928 0.000000 0.000000 -32.508400 3.495894 5.931234 -3.411856 0.000000 0.000000 6.861320 9.576790 -8.911379 8.813083 0.000000 0.000000 -26.522600 
-17.071768 9.203677 41.258046 -175.054328 1.120389 -173.702619 2.808678 -1.842034 -8.417622 -0.612251 -2.057927 3.585876 0.000000 0.000000 0.000000 -1.906036 1.816770 -1.262407 6.404696 5.300734 -44.756138 0.160059 16.601500 -4.899040 -9.361940 -5.519160 -28.675200 0.000000 -20.775499 0.000000 31.403099 8.895740 29.574301 7.996320 -12.943900 -1.543540 4.698950 3.147990 -30.787100 0.000000 19.151800 0.000000 -17.266500 -0.911538 29.551800 5.173889 -0.367779 -4.910732 0.000000 0.000000 7.887360 10.197216 0.989847 5.024101 0.000000 0.000000 -32.615200 3.453612 6.039316 -3.559149 0.000000 0.000000 7.070830 9.580430 -8.854537 8.863619 0.000000 0.000000 -26.533500 
-17.080282 9.204779 41.265020 -175.050673 1.409628 -173.690451 2.859065 -1.739617 -8.293319 -0.647482 -1.969787 3.544687 0.000000 0.000000 0.000000 -1.901377 1.825281 -1.291493 6.447585 5.308297 -44.771562 0.168296 16.581301 -4.870750 -9.391940 -5.430620 -28.611200 0.000000 -20.812201 0.000000 31.469101 8.951750 29.461500 7.984040 -12.946600 -1.451650 4.771180 3.217150 -30.897400 0.000000 19.257299 0.000000 -17.327499 -0.942849 29.435900 5.089667 -0.369849 -4.969264 0.000000 0.000000 8.035700 10.273919 1.311760 5.054858 0.000000 0.000000 -32.589001 3.373507 6.016016 -3.748695 0.000000 0.000000 7.253150 9.535563 -8.617648 8.970233 0.000000 0.000000 -26.582300 
-17.090401 9.205607 41.271867 -175.063623 1.695886 -173.685297 2.867726 -1.674489 -8.222265 -0.630126 -1.906871 3.629292 0.000000 0.000000 0.000000 -1.869862 1.798794 -1.352396 6.430635 5.320058 -44.779403 0.106086 16.581301 -4.907780 -9.423080 -5.316900 -28.540199 0.000000 -20.949100 0.000000 31.493099 9.024910 29.702700 7.952200 -12.847000 -1.434640 4.854160 3.185590 -30.936199 0.000000 19.414200 0.000000 -17.368999 -0.939558 29.346901 4.977042 -0.414531 -5.007602 0.000000 0.000000 8.151910 10.402278 1.683048 5.109880 0.000000 0.000000 -32.580500 3.269990 5.979491 -3.895849 0.000000 0.000000 7.369400 9.512209 -8.375565 9.066895 0.000000 0.000000 -26.629300 
